<?xml version="1.0" encoding="utf-8"?>
<!-- Generator: Adobe Illustrator 15.1.0, SVG Export Plug-In . SVG Version: 6.00 Build 0)  -->
<!DOCTYPE svg PUBLIC "-//W3C//DTD SVG 1.1//EN" "http://www.w3.org/Graphics/SVG/1.1/DTD/svg11.dtd">
<svg version="1.1" id="Ebene_1" xmlns="http://www.w3.org/2000/svg" xmlns:xlink="http://www.w3.org/1999/xlink" x="0px" y="0px"
	 width="779px" height="599px" viewBox="0 0 779 599" enable-background="new 0 0 779 599" xml:space="preserve">
<g id="zulu-shirts.de">
	<path fill="#D8B78B" d="M516.185,294.615c1.019,7.338,2.471,32.223,10.897,36.275c27.295,13.124,36.864-48.52,39.895-63.366
		c3.021-14.773-1.161-49.536-23.579-41.179c-0.736,0.271-1.267,0.611-1.649,0.987c-9.776-4.219-21.006-3.134-24.576,8.824
		C511.878,253.882,513.684,276.681,516.185,294.615z"/>
	<path fill="#D8B78B" d="M261.536,236.158c-3.565-11.958-14.8-13.043-24.582-8.824c-0.374-0.376-0.903-0.716-1.64-0.987
		c-22.417-8.357-26.605,26.404-23.59,41.179c3.031,14.847,12.61,76.489,39.905,63.366c8.427-4.054,9.875-28.938,10.897-36.275
		C265.018,276.681,266.822,253.882,261.536,236.158z"/>
	<path fill="#7F512E" stroke="#000000" stroke-width="4.252" stroke-miterlimit="10" d="M541.249,262.227
		c0-81.175-67.834-146.979-151.514-146.979c-83.672,0-151.504,59.629-151.504,146.979c0,163.112,67.833,146.977,151.504,146.977
		C473.415,409.203,541.249,425.34,541.249,262.227z"/>
	<path fill="#D8B78B" stroke="#000000" stroke-width="4.252" stroke-miterlimit="10" d="M264.955,312.853
		c0,75.445,56.105,136.604,125.313,136.604c69.198,0,125.305-61.159,125.305-136.604c0-75.449-0.664-170.839-125.849-141.136
		C247.935,142.013,264.955,237.404,264.955,312.853z"/>
	<path fill="#FFFFFF" stroke="#000000" stroke-width="4.252" stroke-miterlimit="10" d="M364.379,272.145
		c0-25.045-15.869-45.352-35.453-45.352c-19.574,0-35.447,20.307-35.447,45.352c0,25.048,15.874,45.354,35.447,45.354
		C348.511,317.499,364.379,297.194,364.379,272.145z"/>
	<path fill="#FFFFFF" stroke="#000000" stroke-width="4.252" stroke-miterlimit="10" d="M486.596,272.145
		c0-25.045-15.868-45.352-35.452-45.352c-19.573,0-35.442,20.307-35.442,45.352c0,25.048,15.869,45.354,35.442,45.354
		C470.728,317.499,486.596,297.194,486.596,272.145z"/>
	<path d="M316.951,287.885c0,12.345,6.402,22.353,14.301,22.353c7.903,0,14.307-10.007,14.307-22.353
		c0-12.343-6.402-22.351-14.307-22.351C323.354,265.535,316.951,275.542,316.951,287.885z"/>
	<path d="M433.853,287.885c0,12.345,6.403,22.353,14.303,22.353c7.907,0,14.312-10.007,14.312-22.353
		c0-12.343-6.403-22.351-14.312-22.351C440.256,265.535,433.853,275.542,433.853,287.885z"/>
	<path fill="#D8B78B" stroke="#000000" stroke-width="4.252" stroke-miterlimit="10" d="M545.016,390.588
		c0,51.452-69.523,93.164-155.275,93.164c-85.752,0-155.272-41.712-155.272-93.164c0-51.451,69.521-93.162,155.271-93.162
		C475.49,297.426,545.016,339.136,545.016,390.588z"/>
	<path d="M243.078,328.064c-0.021,0.002-2.501,0.576-5.999-1.567c-5.443-3.332-12.983-12.819-18.058-39.301
		c-2.979-11.056-4.525-20.007-5.075-27.253c-0.109-1.451-0.176-2.831-0.213-4.146c-0.327-13.164,3.025-19.83,6.71-23.192
		c5.874-5.358,14.467-4.125,18.453-3.147c1.329,0.324,2.148,0.623,2.18,0.637l1.863-4.979c-0.644-0.239-15.791-5.772-26.045,3.536
		c-8.936,8.114-10.814,24.602-5.656,48.95c0.732,3.464,1.609,7.088,2.626,10.871c4.328,22.586,11.208,36.907,20.44,42.56
		c3.222,1.975,6.024,2.416,7.893,2.416c1.318,0,2.174-0.223,2.366-0.28L243.078,328.064z"/>
	<path d="M562.109,228.649c-10.244-9.307-25.396-3.775-26.04-3.536l1.857,4.979c0.124-0.053,12.817-4.627,20.632,2.512
		c0.374,0.334,0.737,0.706,1.102,1.109c5.013,5.675,8.707,18.456,1.92,47.215c-0.479,2.011-1.007,4.097-1.588,6.269l0,0
		c-0.021,0.067-0.031,0.125-0.052,0.192c-4.962,25.938-12.383,35.491-17.737,38.938c-3.632,2.34-6.228,1.751-6.278,1.738
		l-1.484,5.101c0.197,0.058,1.049,0.28,2.378,0.28c1.856,0,4.67-0.444,7.888-2.416c9.247-5.662,16.128-20.01,20.414-42.453
		C573.318,258.072,572.312,237.91,562.109,228.649z"/>
	<path d="M291.544,226.439c0.14,2.986,2.844-2.387,4.696-4.097c3.145-2.898,7.519-5.249,11.919-7.341
		c11.104-5.271,24.535-7.268,37.107-7.528c2.59-0.056,3.141-16.24-2.573-16.118c-27.783,0.573-58.301,12.389-57.398,31.689
		c0.125,2.717,0.249,7.776,3.602,9.59C291.404,233.997,291.564,226.782,291.544,226.439L291.544,226.439z"/>
	<path d="M489.657,226.439c-0.141,2.986-2.844-2.387-4.696-4.097c-3.145-2.898-7.519-5.249-11.919-7.341
		c-11.105-5.271-24.535-7.268-37.108-7.528c-2.59-0.056-3.14-16.24,2.574-16.118c27.782,0.573,58.301,12.389,57.397,31.689
		c-0.125,2.717-0.249,7.776-3.603,9.59C489.798,233.997,489.637,226.782,489.657,226.439L489.657,226.439z"/>
	<path fill="none" stroke="#000000" stroke-width="4.252" stroke-miterlimit="10" d="M234.468,374.645
		c155.271,93.164,310.547,0,310.547,0"/>
</g>
</svg>
